<svg width="278" height="278" viewBox="0 0 278 278" fill="none" xmlns="http://www.w3.org/2000/svg">
<path d="M139 254.833C202.973 254.833 254.834 202.973 254.834 139C254.834 75.027 202.973 23.1667 139 23.1667C75.0273 23.1667 23.167 75.027 23.167 139C23.167 202.973 75.0273 254.833 139 254.833Z" fill="#3D4267"/>
<path d="M121.683 118.984V139.243H93.0254V169.696H121.683V253.397C127.347 254.254 133.104 254.833 139 254.833C144.328 254.833 149.54 254.347 154.683 253.652V169.696H184.661L189.364 139.243H154.672V122.598C154.672 109.949 158.807 98.7247 170.645 98.7247H189.665V72.1526C186.318 71.7008 179.263 70.7162 165.908 70.7162C138.027 70.7162 121.683 85.4387 121.683 118.984Z" fill="#E8E9F3"/>
</svg>
